  Metadata:\
    ENCODER         : Lavf58.42.100\
  Duration: N/A, start: -0.007000, bitrate: N/A\
    Stream #0:0(eng): Video: vp9 (Profile 0), yuv420p (tv, bt709), 7680x3840, SAR 1:1 DAR 2:1, 29.97 fps, 29.97 tbr, 1k tbn, 1k tbc (default)\
    Side data:\
      stereo3d: 2D\
    Stream #0:1(eng): Audio: opus, 48000 Hz, stereo, fltp (default)\

ffmpeg -i input.mp4 -c:v libvpx-vp9 -crf 30 -b:v 0 output.webm

ffmpeg -i input.mp4 -c:v libvpx-vp9 -crf 30 -b:v 2000k output.webm

ffmpeg -i input.mp4 -c:v libvpx-vp9 -minrate 500k -b:v 2000k -maxrate 2500k output.webm

ffmpeg -i input.mp4 -c:v libvpx-vp9 -b:v 2M -pass 1 -an -f null /dev/null &&
ffmpeg -i input.mp4 -c:v libvpx-vp9 -b:v 2M -pass 2 -c:a libopus output.webm

ffmpeg -i input.mp4 -c:v libvpx-vp9 -b:v 0 -crf 30 -pass 1 -an -f null /dev/null &&
ffmpeg -i input.mp4 -c:v libvpx-vp9 -b:v 0 -crf 30 -pass 2 -c:a libopus output.webm

VR Headset\
ffmpeg -i "monoscopic_video.mp4" -c:v libx264 -crf 18 -x264-params "mvrange=511" -maxrate 120M -bufsize 150M -vf "scale=5760x2880" -pix_fmt yuv420p -c:a aac -b:a 192k -r 30 -movflags faststart "monoscopic_output.mp4"
ffmpeg -i "stereoscopic_video.mp4" -c:v libx265 -crf 17 -maxrate 120M -bufsize 150M -vf "scale=4096x4096" -pix_fmt yuv420p -c:a aac -b:a 192k -r 30 -movflags faststart "stereoscopic_output.mp4"

Mobile Device
This is a 4096\'d72048 mono or a 3840\'d72160 stereo 30FPS H.265 encode. \
ffmpeg -i "monoscopic_video.mp4" -c:v libx265 -crf 17 -maxrate 80M -bufsize 100M -vf "scale=4096x2048" -pix_fmt yuv420p -c:a aac -b:a 192k -r 30 -movflags faststart "monoscopic_output.mp4"

Stream
The HLS video-on-demand stream uses the mobile-compatible 4096\'d72048 mono or 3840\'d72160 stereo 30FPS H.265 encode as its highest quality for streaming, dropping down to 1440p, 1080p or 720p if network conditions are poor.
ffmpeg -i "stereoscopic_video.mp4" -c:v libx265 -crf 20 -x265-params "keyint=60:min-keyint=60" -maxrate 25M -bufsize 35M -vf "scale=3840x2160" -pix_fmt yuv420p -c:a aac -b:a 192k -r 30 -g 60 "stereoscopic_output.mp4"\

WebVR (BETA)\
There is a 1080p version available optimized for distribution on websites with just a couple of lines of HTML. This 1080p version is also used as a fallback video format on devices that are unable to run any of the other formats for some reason.\
ffmpeg -i "monoscopic_video.mp4" -c:v libx264 -crf 21 -maxrate 10M -bufsize 15M -vf "scale=1920x1080" -pix_fmt yuv420p -c:a aac -b:a 192k -r 30 -g 60 -keyint_min 60 "monoscopic_output.mp4"}